<mxfile host="app.diagrams.net" modified="2022-02-11T09:50:32.953Z" agent="5.0 (Macintosh; Intel Mac OS X 10_15_7) AppleWebKit/537.36 (KHTML, like Gecko) Chrome/97.0.4692.99 Safari/537.36" etag="riFQ_wWdMd13RXz_WC6T" version="16.0.0" type="github">
  <diagram id="C5RBs43oDa-KdzZeNtuy" name="Page-1">
    <mxGraphModel dx="1666" dy="624" grid="1" gridSize="10" guides="1" tooltips="1" connect="1" arrows="1" fold="1" page="1" pageScale="1" pageWidth="827" pageHeight="1169" math="0" shadow="0">
      <root>
        <mxCell id="WIyWlLk6GJQsqaUBKTNV-0" />
        <mxCell id="WIyWlLk6GJQsqaUBKTNV-1" parent="WIyWlLk6GJQsqaUBKTNV-0" />
        <mxCell id="pYW381yJtmGTM-EJAtI1-4" value="" style="endArrow=classic;html=1;rounded=0;exitX=1;exitY=0.5;exitDx=0;exitDy=0;exitPerimeter=0;" edge="1" parent="WIyWlLk6GJQsqaUBKTNV-1" source="pYW381yJtmGTM-EJAtI1-6">
          <mxGeometry width="50" height="50" relative="1" as="geometry">
            <mxPoint x="140" y="380" as="sourcePoint" />
            <mxPoint x="230" y="380" as="targetPoint" />
          </mxGeometry>
        </mxCell>
        <mxCell id="pYW381yJtmGTM-EJAtI1-9" value="" style="edgeStyle=orthogonalEdgeStyle;rounded=0;orthogonalLoop=1;jettySize=auto;html=1;exitX=0.5;exitY=0;exitDx=0;exitDy=0;" edge="1" parent="WIyWlLk6GJQsqaUBKTNV-1" source="pYW381yJtmGTM-EJAtI1-5" target="pYW381yJtmGTM-EJAtI1-7">
          <mxGeometry relative="1" as="geometry">
            <Array as="points">
              <mxPoint x="335" y="300" />
              <mxPoint x="235" y="300" />
            </Array>
          </mxGeometry>
        </mxCell>
        <mxCell id="pYW381yJtmGTM-EJAtI1-26" value="" style="edgeStyle=orthogonalEdgeStyle;rounded=0;orthogonalLoop=1;jettySize=auto;html=1;entryX=0.5;entryY=0;entryDx=0;entryDy=0;" edge="1" parent="WIyWlLk6GJQsqaUBKTNV-1" source="pYW381yJtmGTM-EJAtI1-5" target="pYW381yJtmGTM-EJAtI1-37">
          <mxGeometry relative="1" as="geometry">
            <mxPoint x="260" y="470" as="targetPoint" />
            <Array as="points" />
          </mxGeometry>
        </mxCell>
        <mxCell id="pYW381yJtmGTM-EJAtI1-36" value="" style="edgeStyle=orthogonalEdgeStyle;rounded=0;orthogonalLoop=1;jettySize=auto;html=1;" edge="1" parent="WIyWlLk6GJQsqaUBKTNV-1" source="pYW381yJtmGTM-EJAtI1-5" target="pYW381yJtmGTM-EJAtI1-35">
          <mxGeometry relative="1" as="geometry" />
        </mxCell>
        <mxCell id="pYW381yJtmGTM-EJAtI1-45" value="" style="edgeStyle=orthogonalEdgeStyle;rounded=0;orthogonalLoop=1;jettySize=auto;html=1;entryX=0.5;entryY=1;entryDx=0;entryDy=0;entryPerimeter=0;" edge="1" parent="WIyWlLk6GJQsqaUBKTNV-1" source="pYW381yJtmGTM-EJAtI1-5" target="pYW381yJtmGTM-EJAtI1-43">
          <mxGeometry relative="1" as="geometry">
            <mxPoint x="435" y="270" as="targetPoint" />
            <Array as="points">
              <mxPoint x="335" y="300" />
              <mxPoint x="435" y="300" />
            </Array>
          </mxGeometry>
        </mxCell>
        <mxCell id="pYW381yJtmGTM-EJAtI1-5" value="kafka" style="rounded=0;whiteSpace=wrap;html=1;" vertex="1" parent="WIyWlLk6GJQsqaUBKTNV-1">
          <mxGeometry x="230" y="360" width="210" height="40" as="geometry" />
        </mxCell>
        <mxCell id="pYW381yJtmGTM-EJAtI1-6" value="电信mongo" style="shape=cylinder3;whiteSpace=wrap;html=1;boundedLbl=1;backgroundOutline=1;size=15;" vertex="1" parent="WIyWlLk6GJQsqaUBKTNV-1">
          <mxGeometry x="40" y="340" width="60" height="80" as="geometry" />
        </mxCell>
        <mxCell id="pYW381yJtmGTM-EJAtI1-7" value="elasticsearch" style="shape=cylinder3;whiteSpace=wrap;html=1;boundedLbl=1;backgroundOutline=1;size=15;" vertex="1" parent="WIyWlLk6GJQsqaUBKTNV-1">
          <mxGeometry x="160" y="160" width="150" height="70" as="geometry" />
        </mxCell>
        <mxCell id="pYW381yJtmGTM-EJAtI1-20" value="" style="shape=filledEdge;rounded=0;fixDash=1;endArrow=none;strokeWidth=10;fillColor=#ffffff;edgeStyle=orthogonalEdgeStyle;entryX=0;entryY=0.5;entryDx=0;entryDy=0;startArrow=none;" edge="1" parent="WIyWlLk6GJQsqaUBKTNV-1" source="pYW381yJtmGTM-EJAtI1-52">
          <mxGeometry width="60" height="40" relative="1" as="geometry">
            <mxPoint x="440" y="380" as="sourcePoint" />
            <mxPoint x="640" y="380" as="targetPoint" />
          </mxGeometry>
        </mxCell>
        <mxCell id="pYW381yJtmGTM-EJAtI1-21" value="Apache Flink" style="text;html=1;align=center;verticalAlign=middle;resizable=0;points=[];autosize=1;strokeColor=none;fillColor=none;" vertex="1" parent="WIyWlLk6GJQsqaUBKTNV-1">
          <mxGeometry x="497.5" y="330" width="80" height="20" as="geometry" />
        </mxCell>
        <mxCell id="pYW381yJtmGTM-EJAtI1-30" value="" style="edgeStyle=orthogonalEdgeStyle;rounded=0;orthogonalLoop=1;jettySize=auto;html=1;entryX=0.517;entryY=0.1;entryDx=0;entryDy=0;entryPerimeter=0;" edge="1" parent="WIyWlLk6GJQsqaUBKTNV-1" target="pYW381yJtmGTM-EJAtI1-29">
          <mxGeometry relative="1" as="geometry">
            <mxPoint x="260" y="530" as="sourcePoint" />
            <mxPoint x="260" y="570" as="targetPoint" />
            <Array as="points">
              <mxPoint x="262" y="530" />
            </Array>
          </mxGeometry>
        </mxCell>
        <mxCell id="pYW381yJtmGTM-EJAtI1-29" value="mongoDB" style="ellipse;shape=cloud;whiteSpace=wrap;html=1;rounded=0;" vertex="1" parent="WIyWlLk6GJQsqaUBKTNV-1">
          <mxGeometry x="200" y="630" width="120" height="80" as="geometry" />
        </mxCell>
        <mxCell id="pYW381yJtmGTM-EJAtI1-41" value="" style="edgeStyle=orthogonalEdgeStyle;rounded=0;orthogonalLoop=1;jettySize=auto;html=1;" edge="1" parent="WIyWlLk6GJQsqaUBKTNV-1" source="pYW381yJtmGTM-EJAtI1-35" target="pYW381yJtmGTM-EJAtI1-38">
          <mxGeometry relative="1" as="geometry" />
        </mxCell>
        <mxCell id="pYW381yJtmGTM-EJAtI1-35" value="数据治理" style="rhombus;whiteSpace=wrap;html=1;rounded=0;" vertex="1" parent="WIyWlLk6GJQsqaUBKTNV-1">
          <mxGeometry x="374" y="490" width="80" height="80" as="geometry" />
        </mxCell>
        <mxCell id="pYW381yJtmGTM-EJAtI1-37" value="数据治理" style="rhombus;whiteSpace=wrap;html=1;rounded=0;" vertex="1" parent="WIyWlLk6GJQsqaUBKTNV-1">
          <mxGeometry x="220" y="490" width="80" height="80" as="geometry" />
        </mxCell>
        <mxCell id="pYW381yJtmGTM-EJAtI1-38" value="TiDB" style="shape=cylinder3;whiteSpace=wrap;html=1;boundedLbl=1;backgroundOutline=1;size=15;" vertex="1" parent="WIyWlLk6GJQsqaUBKTNV-1">
          <mxGeometry x="384" y="620" width="60" height="80" as="geometry" />
        </mxCell>
        <mxCell id="pYW381yJtmGTM-EJAtI1-43" value="rdbms,hdfs......" style="shape=cylinder3;whiteSpace=wrap;html=1;boundedLbl=1;backgroundOutline=1;size=15;" vertex="1" parent="WIyWlLk6GJQsqaUBKTNV-1">
          <mxGeometry x="360" y="160" width="150" height="70" as="geometry" />
        </mxCell>
        <mxCell id="pYW381yJtmGTM-EJAtI1-47" value="redis,es......" style="rounded=0;whiteSpace=wrap;html=1;" vertex="1" parent="WIyWlLk6GJQsqaUBKTNV-1">
          <mxGeometry x="630" y="340" width="140" height="70" as="geometry" />
        </mxCell>
        <mxCell id="pYW381yJtmGTM-EJAtI1-48" value="DBZ&lt;br&gt;mongoShake" style="text;html=1;align=center;verticalAlign=middle;resizable=0;points=[];autosize=1;strokeColor=none;fillColor=none;" vertex="1" parent="WIyWlLk6GJQsqaUBKTNV-1">
          <mxGeometry x="120" y="345" width="90" height="30" as="geometry" />
        </mxCell>
        <mxCell id="pYW381yJtmGTM-EJAtI1-50" value="kafka-connect" style="text;html=1;align=center;verticalAlign=middle;resizable=0;points=[];autosize=1;strokeColor=none;fillColor=none;" vertex="1" parent="WIyWlLk6GJQsqaUBKTNV-1">
          <mxGeometry x="340" y="320" width="90" height="20" as="geometry" />
        </mxCell>
        <mxCell id="pYW381yJtmGTM-EJAtI1-52" value="" style="verticalLabelPosition=bottom;verticalAlign=top;html=1;shape=mxgraph.flowchart.parallel_mode;pointerEvents=1" vertex="1" parent="WIyWlLk6GJQsqaUBKTNV-1">
          <mxGeometry x="490" y="360" width="95" height="40" as="geometry" />
        </mxCell>
        <mxCell id="pYW381yJtmGTM-EJAtI1-53" value="" style="shape=filledEdge;rounded=0;fixDash=1;endArrow=none;strokeWidth=10;fillColor=#ffffff;edgeStyle=orthogonalEdgeStyle;entryX=0;entryY=0.5;entryDx=0;entryDy=0;" edge="1" parent="WIyWlLk6GJQsqaUBKTNV-1" target="pYW381yJtmGTM-EJAtI1-52">
          <mxGeometry width="60" height="40" relative="1" as="geometry">
            <mxPoint x="440" y="380" as="sourcePoint" />
            <mxPoint x="640" y="380" as="targetPoint" />
          </mxGeometry>
        </mxCell>
        <mxCell id="pYW381yJtmGTM-EJAtI1-54" value="1" style="text;html=1;align=center;verticalAlign=middle;resizable=0;points=[];autosize=1;strokeColor=none;fillColor=none;" vertex="1" parent="WIyWlLk6GJQsqaUBKTNV-1">
          <mxGeometry x="155" y="390" width="20" height="20" as="geometry" />
        </mxCell>
        <mxCell id="pYW381yJtmGTM-EJAtI1-55" value="2" style="text;html=1;align=center;verticalAlign=middle;resizable=0;points=[];autosize=1;strokeColor=none;fillColor=none;" vertex="1" parent="WIyWlLk6GJQsqaUBKTNV-1">
          <mxGeometry x="310" y="320" width="20" height="20" as="geometry" />
        </mxCell>
        <mxCell id="pYW381yJtmGTM-EJAtI1-56" value="3" style="text;html=1;align=center;verticalAlign=middle;resizable=0;points=[];autosize=1;strokeColor=none;fillColor=none;" vertex="1" parent="WIyWlLk6GJQsqaUBKTNV-1">
          <mxGeometry x="310" y="410" width="20" height="20" as="geometry" />
        </mxCell>
        <mxCell id="pYW381yJtmGTM-EJAtI1-57" value="4" style="text;html=1;align=center;verticalAlign=middle;resizable=0;points=[];autosize=1;strokeColor=none;fillColor=none;" vertex="1" parent="WIyWlLk6GJQsqaUBKTNV-1">
          <mxGeometry x="270" y="580" width="20" height="20" as="geometry" />
        </mxCell>
        <mxCell id="pYW381yJtmGTM-EJAtI1-58" value="5" style="text;html=1;align=center;verticalAlign=middle;resizable=0;points=[];autosize=1;strokeColor=none;fillColor=none;" vertex="1" parent="WIyWlLk6GJQsqaUBKTNV-1">
          <mxGeometry x="420" y="580" width="20" height="20" as="geometry" />
        </mxCell>
        <mxCell id="pYW381yJtmGTM-EJAtI1-59" value="6" style="text;html=1;align=center;verticalAlign=middle;resizable=0;points=[];autosize=1;strokeColor=none;fillColor=none;" vertex="1" parent="WIyWlLk6GJQsqaUBKTNV-1">
          <mxGeometry x="460" y="350" width="20" height="20" as="geometry" />
        </mxCell>
        <mxCell id="pYW381yJtmGTM-EJAtI1-60" value="7" style="text;html=1;align=center;verticalAlign=middle;resizable=0;points=[];autosize=1;strokeColor=none;fillColor=none;" vertex="1" parent="WIyWlLk6GJQsqaUBKTNV-1">
          <mxGeometry x="600" y="350" width="20" height="20" as="geometry" />
        </mxCell>
        <mxCell id="pYW381yJtmGTM-EJAtI1-61" value="&lt;font style=&quot;font-size: 18px&quot;&gt;图1&lt;/font&gt;" style="text;html=1;align=center;verticalAlign=middle;resizable=0;points=[];autosize=1;strokeColor=none;fillColor=none;" vertex="1" parent="WIyWlLk6GJQsqaUBKTNV-1">
          <mxGeometry x="355" y="740" width="40" height="20" as="geometry" />
        </mxCell>
      </root>
    </mxGraphModel>
  </diagram>
</mxfile>
